<?xml version="1.0" encoding="UTF-8"?>
<svg width="49px" height="68px" viewBox="0 0 49 68" version="1.1" xmlns="http://www.w3.org/2000/svg" xmlns:xlink="http://www.w3.org/1999/xlink">
    <title>路径</title>
    <g id="充值界面" stroke="none" stroke-width="1" fill="none" fill-rule="evenodd">
        <g id="flash-solid" fill="#FFAA00">
            <path d="M28.3944104,0.128376587 C29.3712497,0.478696992 30.0322759,1.48275586 30.0322759,2.61556079 L30.0322759,24.4103302 L46.6290604,24.4103302 C47.5208609,24.4103302 48.3371066,24.9623132 48.741752,25.8389163 C49.1463974,26.7155193 49.0711586,27.7682939 48.5467002,28.5640645 L23.2563621,66.9228585 C22.6522391,67.8389363 21.5821417,68.2218268 20.6056185,67.8717156 C19.6287792,67.5212557 18.967753,66.5173015 18.967753,65.3846709 L18.967753,43.5899015 L2.37096852,43.5899015 C1.47919958,43.5899015 0.662827461,43.0378836 0.25818205,42.1612108 C-0.146494975,41.284538 -0.0710349279,40.2317635 0.453486686,39.4359929 L25.7439829,1.07726854 C26.3477898,0.161121048 27.4178872,-0.221943818 28.3944104,0.128376587 Z" id="路径"></path>
        </g>
    </g>
</svg>