<svg width="39" height="16" viewBox="0 0 39 16" fill="none" xmlns="http://www.w3.org/2000/svg">
<path d="M12.1819 0.206055H16.3045V15.743H13.8476V2.55007H12.1819V0.206055ZM33.0111 13.4373V12.8379L38.6417 7.4737V4.25521H29.9645V6.58941H35.5875L35.5929 7.1965L29.9645 12.5946V15.7408H38.6822V13.4384H33.0111V13.4373ZM29.2533 10.2977C29.2533 13.6061 26.7098 15.995 23.4091 15.995C20.1083 15.995 17.5428 13.4669 17.5428 10.2977C17.5428 8.8041 17.967 7.7203 18.8261 6.5138L23.5318 0.220305H26.5181L23.2447 4.49298C23.3641 4.4777 23.4354 4.47547 23.6852 4.47547C26.7109 4.47547 29.2533 6.9894 29.2533 10.2977ZM26.769 10.2506C26.769 8.3438 25.2862 6.7603 23.4058 6.7603C21.5253 6.7603 20.0469 8.3438 20.0469 10.2506C20.0469 12.1574 21.4923 13.742 23.3948 13.742C25.2973 13.742 26.7679 12.1574 26.7679 10.2506H26.769ZM9.67339 4.25632H12.1238V15.732H9.67339V14.8016L9.67228 14.8027V14.7995H9.07175C8.36933 15.5709 7.577 15.8372 6.51179 15.949H6.50632C6.30139 15.9589 6.0844 15.9622 5.84989 15.9622C2.94364 15.9622 0.0976562 13.6433 0.0976562 9.9942C0.0976562 6.345 2.85158 3.93193 5.87509 3.93193C6.02742 3.93193 6.18632 3.93304 6.3496 3.94072C6.35837 3.94072 6.36823 3.94183 6.377 3.94183C7.2833 4.01304 8.41425 4.40099 9.07175 5.1242H9.669C9.669 5.1242 9.67228 5.12531 9.67339 5.12754V4.25632ZM9.58133 9.95041C9.58133 7.99651 8.00218 6.4129 6.05153 6.4129C4.25869 6.4129 2.77707 7.7542 2.55241 9.4901C2.55241 9.4945 2.55241 9.4978 2.55132 9.4999C2.54364 9.5602 2.53926 9.61831 2.53488 9.67861C2.5272 9.76731 2.52282 9.85941 2.52282 9.95041C2.52282 9.98101 2.52282 10.0117 2.52392 10.0424C2.57213 11.9546 4.13266 13.491 6.05153 13.491C7.97038 13.491 9.58133 11.9053 9.58133 9.95041Z" fill="black"/>
</svg>
