<svg xmlns:xlink="http://www.w3.org/1999/xlink" xmlns="http://www.w3.org/2000/svg" viewBox="0 0 743 745" width="22" height="22"><g><path fill="#FAFAFA" d="M307.64,706.23l51.85-89.73l74.87,129.59l94.42-54.47L443.6,544.21l-21.18-36.64l-24.84-43.01h-76.19   l-24.84,43.01l-21.19,36.64l-62.14,107.56L307.64,706.23z"></path><path fill="#FAFAFA" d="M50.84,484.98l103.69,0.01L79.66,614.57l94.42,54.48l85.18-147.41l21.16-36.65l24.85-43l-38.09-65.93   l-49.7,0l-42.35-0.02l-124.29,0.01L50.84,484.98z"></path><path fill="#FAFAFA" d="M114.21,152.14l51.84,89.74L16.3,241.87l0,108.94l170.36,0l42.35-0.02l49.7,0.01l38.09-65.93l-24.85-43   l-21.16-36.65L208.62,97.67L114.21,152.14z"></path><path fill="#FAFAFA" d="M434.36,40.55l-51.85,89.73L307.64,0.69l-94.42,54.47l85.18,147.42l21.19,36.64l24.84,43.01h76.19   l24.84-43.01l21.18-36.64l62.14-107.56L434.36,40.55z"></path><path fill="#FAFAFA" d="M691.15,261.8l-103.69-0.01l74.88-129.58l-94.42-54.47l-85.18,147.41l-21.16,36.65l-24.85,43l38.09,65.93   l49.7-0.01l42.35,0.02l124.29-0.01L691.15,261.8z"></path><path fill="#FAFAFA" d="M627.79,594.63l-51.84-89.73l149.75,0.01l0.01-108.94l-170.35,0l-42.35,0.01l-49.7,0l-38.1,65.93l24.85,43   l21.16,36.65l62.15,107.55L627.79,594.63z"></path></g></svg>