<svg width="800" height="800" viewBox="0 0 800 800" fill="none" xmlns="http://www.w3.org/2000/svg">
<path d="M531.333 304L400 370L268.667 304L106 628.667L207.333 618.667L259.333 706L400 426L540.667 706L592.667 618.667L694 628.667L531.333 304Z" fill="#C4C4C4"/>
<path d="M400 524C518.557 524 614.667 427.89 614.667 309.333C614.667 190.776 518.557 94.6667 400 94.6667C281.443 94.6667 185.333 190.776 185.333 309.333C185.333 427.89 281.443 524 400 524Z" fill="#E5B97F"/>
<path d="M400 478C493.152 478 568.667 402.485 568.667 309.333C568.667 216.181 493.152 140.667 400 140.667C306.848 140.667 231.333 216.181 231.333 309.333C231.333 402.485 306.848 478 400 478Z" fill="#C19A6B"/>
<path d="M390.378 288.88C391.562 289.028 392.524 289.102 393.264 289.102C394.152 289.102 394.892 289.102 395.484 289.102C400.96 289.102 405.4 287.474 408.804 284.218C412.208 280.962 413.91 276.744 413.91 271.564C413.91 266.532 412.282 262.462 409.026 259.354C405.918 256.246 401.848 254.692 396.816 254.692C391.488 254.692 387.196 256.468 383.94 260.02C380.684 263.572 379.056 268.16 379.056 273.784H338.874C339.91 265.052 342.056 257.282 345.312 250.474C348.716 243.666 353.008 237.968 358.188 233.38C363.368 228.644 369.436 225.092 376.392 222.724C383.348 220.208 391.044 218.95 399.48 218.95C407.768 218.95 415.242 220.134 421.902 222.502C428.71 224.722 434.482 227.978 439.218 232.27C444.102 236.414 447.802 241.52 450.318 247.588C452.982 253.508 454.314 260.168 454.314 267.568C454.314 275.56 452.76 282.146 449.652 287.326C446.692 292.358 442.4 296.724 436.776 300.424C445.36 303.088 452.02 307.898 456.756 314.854C461.64 321.662 464.082 330.098 464.082 340.162C464.082 348.45 462.454 355.998 459.198 362.806C455.942 369.614 451.354 375.46 445.434 380.344C439.662 385.228 432.706 389.002 424.566 391.666C416.574 394.33 407.768 395.662 398.148 395.662C385.272 395.662 373.654 393.146 363.294 388.114C352.934 383.082 344.646 375.09 338.43 364.138C335.618 359.254 333.694 354.37 332.658 349.486C331.77 344.602 331.326 339.644 331.326 334.612H374.394C374.69 342.456 376.984 348.45 381.276 352.594C385.568 356.59 391.34 358.588 398.592 358.588C406.288 358.588 411.912 356.516 415.464 352.372C419.016 348.228 420.792 343.122 420.792 337.054C420.792 329.802 418.646 324.326 414.354 320.626C410.062 316.926 404.956 315.076 399.036 315.076C397.556 315.076 396.15 315.224 394.818 315.52C393.486 315.668 392.006 315.89 390.378 316.186V288.88Z" fill="white"/>
</svg>
