<svg width="800" height="800" viewBox="0 0 800 800" fill="none" xmlns="http://www.w3.org/2000/svg">
<path d="M531.333 304L400 370L268.667 304L106 628.667L207.333 618.667L259.333 706L400 426L540.667 706L592.667 618.667L694 628.667L531.333 304Z" fill="#E24255"/>
<path d="M400 524C518.557 524 614.667 427.89 614.667 309.333C614.667 190.776 518.557 94.6667 400 94.6667C281.443 94.6667 185.333 190.776 185.333 309.333C185.333 427.89 281.443 524 400 524Z" fill="#FFC54D"/>
<path d="M400 478C493.152 478 568.667 402.485 568.667 309.333C568.667 216.181 493.152 140.667 400 140.667C306.848 140.667 231.333 216.181 231.333 309.333C231.333 402.485 306.848 478 400 478Z" fill="#E8B04B"/>
<path d="M391.83 268.464H367.41V231.612H435.342V399H391.83V268.464Z" fill="white"/>
</svg>
