<svg width="800" height="800" viewBox="0 0 800 800" fill="none" xmlns="http://www.w3.org/2000/svg">
<path d="M531.333 304L400 370L268.667 304L106 628.667L207.333 618.667L259.333 706L400 426L540.667 706L592.667 618.667L694 628.667L531.333 304Z" fill="#FFBF4B"/>
<path d="M400 524C518.557 524 614.667 427.89 614.667 309.333C614.667 190.776 518.557 94.6667 400 94.6667C281.443 94.6667 185.333 190.776 185.333 309.333C185.333 427.89 281.443 524 400 524Z" fill="#EDEDED"/>
<path d="M400 478C493.152 478 568.667 402.485 568.667 309.333C568.667 216.181 493.152 140.667 400 140.667C306.848 140.667 231.333 216.181 231.333 309.333C231.333 402.485 306.848 478 400 478Z" fill="#BCBCBC"/>
<path d="M464.97 391H330.216L371.73 347.932C382.682 336.536 391.266 326.916 397.482 319.072C403.698 311.08 408.286 304.346 411.246 298.87C414.354 293.394 416.278 288.954 417.018 285.55C417.758 282.146 418.128 279.26 418.128 276.892C418.128 274.376 417.684 271.934 416.796 269.566C416.056 267.198 414.872 265.126 413.244 263.35C411.616 261.426 409.618 259.946 407.25 258.91C405.03 257.726 402.366 257.134 399.258 257.134C393.338 257.134 388.676 259.058 385.272 262.906C382.016 266.754 380.388 271.564 380.388 277.336C380.388 278.964 380.61 281.332 381.054 284.44H333.546C333.546 274.672 335.1 265.792 338.208 257.8C341.464 249.808 345.978 242.926 351.75 237.154C357.522 231.382 364.33 226.942 372.174 223.834C380.166 220.726 388.898 219.172 398.37 219.172C407.694 219.172 416.278 220.652 424.122 223.612C432.114 226.572 438.996 230.716 444.768 236.044C450.54 241.372 455.054 247.736 458.31 255.136C461.566 262.388 463.194 270.306 463.194 278.89C463.194 288.066 461.196 296.576 457.2 304.42C453.352 312.116 447.136 320.034 438.552 328.174L410.802 354.148H464.97V391Z" fill="white"/>
</svg>
